<?xml version="1.0" encoding="UTF-8" standalone="no"?>
<!DOCTYPE svg PUBLIC "-//W3C//DTD SVG 1.1//EN"
 "http://www.w3.org/Graphics/SVG/1.1/DTD/svg11.dtd">
<!-- Generated by graphviz version 2.30.1 (20201013.1554)
 -->
<!-- Title: %3 Pages: 1 -->
<svg width="569pt" height="1088pt"
 viewBox="0.00 0.00 569.00 1088.00" xmlns="http://www.w3.org/2000/svg" xmlns:xlink="http://www.w3.org/1999/xlink">
<g id="graph0" class="graph" transform="scale(1 1) rotate(0) translate(4 1084)">
<title>%3</title>
<polygon fill="#eeeeee" stroke="#eeeeee" points="-4,5 -4,-1084 566,-1084 566,5 -4,5"/>
<!-- Patient -->
<g id="node1" class="node"><title>Patient</title>
<g id="a_node1"><a xlink:href="http://Patient_details.html" xlink:title="&lt;TABLE&gt;">
<polygon fill="#3f51b5" stroke="none" points="180,-1056 180,-1075 408,-1075 408,-1056 180,-1056"/>
<polygon fill="none" stroke="black" points="180,-1056 180,-1075 408,-1075 408,-1056 180,-1056"/>
<text text-anchor="start" x="273" y="-1062.9" font-family="Roboto" font-size="12.00" fill="white">Patient</text>
<polygon fill="#bbdefb" stroke="none" points="180,-1038 180,-1056 266,-1056 266,-1038 180,-1038"/>
<polygon fill="none" stroke="black" points="180,-1038 180,-1056 266,-1056 266,-1038 180,-1038"/>
<text text-anchor="start" x="217.5" y="-1044.4" font-family="Roboto" font-size="12.00">id</text>
<polygon fill="#bbdefb" stroke="none" points="266,-1038 266,-1056 408,-1056 408,-1038 266,-1038"/>
<polygon fill="none" stroke="black" points="266,-1038 266,-1056 408,-1056 408,-1038 266,-1038"/>
<text text-anchor="start" x="296" y="-1044.4" font-family="Roboto" font-size="12.00">INTEGER (PK)</text>
<polygon fill="#bbdefb" stroke="none" points="180,-1020 180,-1038 266,-1038 266,-1020 180,-1020"/>
<polygon fill="none" stroke="black" points="180,-1020 180,-1038 266,-1038 266,-1020 180,-1020"/>
<text text-anchor="start" x="193.5" y="-1026.4" font-family="Roboto" font-size="12.00">patient_id</text>
<polygon fill="#bbdefb" stroke="none" points="266,-1020 266,-1038 408,-1038 408,-1020 266,-1020"/>
<polygon fill="none" stroke="black" points="266,-1020 266,-1038 408,-1038 408,-1020 266,-1020"/>
<text text-anchor="start" x="269" y="-1026.4" font-family="Roboto" font-size="12.00">VARCHAR(64) (Unique)</text>
<polygon fill="#bbdefb" stroke="none" points="180,-1002 180,-1020 266,-1020 266,-1002 180,-1002"/>
<polygon fill="none" stroke="black" points="180,-1002 180,-1020 266,-1020 266,-1002 180,-1002"/>
<text text-anchor="start" x="209" y="-1008.4" font-family="Roboto" font-size="12.00">race</text>
<polygon fill="#bbdefb" stroke="none" points="266,-1002 266,-1020 408,-1020 408,-1002 266,-1002"/>
<polygon fill="none" stroke="black" points="266,-1002 266,-1020 408,-1020 408,-1002 266,-1002"/>
<text text-anchor="start" x="286" y="-1008.4" font-family="Roboto" font-size="12.00">VARCHAR(255) ()</text>
<polygon fill="#bbdefb" stroke="none" points="180,-984 180,-1002 266,-1002 266,-984 180,-984"/>
<polygon fill="none" stroke="black" points="180,-984 180,-1002 266,-1002 266,-984 180,-984"/>
<text text-anchor="start" x="212.5" y="-990.4" font-family="Roboto" font-size="12.00">sex</text>
<polygon fill="#bbdefb" stroke="none" points="266,-984 266,-1002 408,-1002 408,-984 266,-984"/>
<polygon fill="none" stroke="black" points="266,-984 266,-1002 408,-1002 408,-984 266,-984"/>
<text text-anchor="start" x="286" y="-990.4" font-family="Roboto" font-size="12.00">VARCHAR(255) ()</text>
<polygon fill="#bbdefb" stroke="none" points="180,-966 180,-984 266,-984 266,-966 180,-966"/>
<polygon fill="none" stroke="black" points="180,-966 180,-984 266,-984 266,-966 180,-966"/>
<text text-anchor="start" x="203" y="-972.4" font-family="Roboto" font-size="12.00">is_twin</text>
<polygon fill="#bbdefb" stroke="none" points="266,-966 266,-984 408,-984 408,-966 266,-966"/>
<polygon fill="none" stroke="black" points="266,-966 266,-984 408,-984 408,-966 266,-966"/>
<text text-anchor="start" x="304" y="-972.4" font-family="Roboto" font-size="12.00">INTEGER ()</text>
<polygon fill="#bbdefb" stroke="none" points="180,-948 180,-966 266,-966 266,-948 180,-948"/>
<polygon fill="none" stroke="black" points="180,-948 180,-966 266,-966 266,-948 180,-948"/>
<text text-anchor="start" x="202" y="-954.4" font-family="Roboto" font-size="12.00">twin_id</text>
<polygon fill="#bbdefb" stroke="none" points="266,-948 266,-966 408,-966 408,-948 266,-948"/>
<polygon fill="none" stroke="black" points="266,-948 266,-966 408,-966 408,-948 266,-948"/>
<text text-anchor="start" x="290" y="-954.4" font-family="Roboto" font-size="12.00">VARCHAR(64) ()</text>
<polygon fill="#bbdefb" stroke="none" points="180,-930 180,-948 266,-948 266,-930 180,-930"/>
<polygon fill="none" stroke="black" points="180,-930 180,-948 266,-948 266,-930 180,-930"/>
<text text-anchor="start" x="183.5" y="-936.4" font-family="Roboto" font-size="12.00">date_of_birth</text>
<polygon fill="#bbdefb" stroke="none" points="266,-930 266,-948 408,-948 408,-930 266,-930"/>
<polygon fill="none" stroke="black" points="266,-930 266,-948 408,-948 408,-930 266,-930"/>
<text text-anchor="start" x="290" y="-936.4" font-family="Roboto" font-size="12.00">VARCHAR(10) ()</text>
<polygon fill="#bbdefb" stroke="none" points="180,-912 180,-930 266,-930 266,-912 180,-912"/>
<polygon fill="none" stroke="black" points="180,-912 180,-930 266,-930 266,-912 180,-912"/>
<text text-anchor="start" x="198.5" y="-918.4" font-family="Roboto" font-size="12.00">study_id</text>
<polygon fill="#bbdefb" stroke="none" points="266,-912 266,-930 408,-930 408,-912 266,-912"/>
<polygon fill="none" stroke="black" points="266,-912 266,-930 408,-930 408,-912 266,-912"/>
<text text-anchor="start" x="286" y="-918.4" font-family="Roboto" font-size="12.00">VARCHAR(255) ()</text>
</a>
</g>
</g>
<!-- VariableData -->
<g id="node2" class="node"><title>VariableData</title>
<g id="a_node2"><a xlink:href="http://VariableData_details.html" xlink:title="&lt;TABLE&gt;">
<polygon fill="#3f51b5" stroke="none" points="10,-836 10,-855 285,-855 285,-836 10,-836"/>
<polygon fill="none" stroke="black" points="10,-836 10,-855 285,-855 285,-836 10,-836"/>
<text text-anchor="start" x="108.5" y="-842.9" font-family="Roboto" font-size="12.00" fill="white">VariableData</text>
<polygon fill="#bbdefb" stroke="none" points="10,-818 10,-836 177,-836 177,-818 10,-818"/>
<polygon fill="none" stroke="black" points="10,-818 10,-836 177,-836 177,-818 10,-818"/>
<text text-anchor="start" x="88" y="-824.4" font-family="Roboto" font-size="12.00">id</text>
<polygon fill="#bbdefb" stroke="none" points="177,-818 177,-836 285,-836 285,-818 177,-818"/>
<polygon fill="none" stroke="black" points="177,-818 177,-836 285,-836 285,-818 177,-818"/>
<text text-anchor="start" x="190" y="-824.4" font-family="Roboto" font-size="12.00">INTEGER (PK)</text>
<polygon fill="#bbdefb" stroke="none" points="10,-800 10,-818 177,-818 177,-800 10,-800"/>
<polygon fill="none" stroke="black" points="10,-800 10,-818 177,-818 177,-800 10,-800"/>
<text text-anchor="start" x="64" y="-806.4" font-family="Roboto" font-size="12.00">patient_id</text>
<polygon fill="#bbdefb" stroke="none" points="177,-800 177,-818 285,-818 285,-800 177,-800"/>
<polygon fill="none" stroke="black" points="177,-800 177,-818 285,-818 285,-800 177,-800"/>
<text text-anchor="start" x="180" y="-806.4" font-family="Roboto" font-size="12.00">VARCHAR(255) ()</text>
<polygon fill="#bbdefb" stroke="none" points="10,-782 10,-800 177,-800 177,-782 10,-782"/>
<polygon fill="none" stroke="black" points="10,-782 10,-800 177,-800 177,-782 10,-782"/>
<text text-anchor="start" x="61" y="-788.4" font-family="Roboto" font-size="12.00">variable_id</text>
<polygon fill="#bbdefb" stroke="none" points="177,-782 177,-800 285,-800 285,-782 177,-782"/>
<polygon fill="none" stroke="black" points="177,-782 177,-800 285,-800 285,-782 177,-782"/>
<text text-anchor="start" x="180" y="-788.4" font-family="Roboto" font-size="12.00">VARCHAR(255) ()</text>
<polygon fill="#bbdefb" stroke="none" points="10,-764 10,-782 177,-782 177,-764 10,-764"/>
<polygon fill="none" stroke="black" points="10,-764 10,-782 177,-782 177,-764 10,-764"/>
<text text-anchor="start" x="79.5" y="-770.4" font-family="Roboto" font-size="12.00">date</text>
<polygon fill="#bbdefb" stroke="none" points="177,-764 177,-782 285,-782 285,-764 177,-764"/>
<polygon fill="none" stroke="black" points="177,-764 177,-782 285,-782 285,-764 177,-764"/>
<text text-anchor="start" x="184" y="-770.4" font-family="Roboto" font-size="12.00">VARCHAR(10) ()</text>
<polygon fill="#bbdefb" stroke="none" points="10,-746 10,-764 177,-764 177,-746 10,-746"/>
<polygon fill="none" stroke="black" points="10,-746 10,-764 177,-764 177,-746 10,-746"/>
<text text-anchor="start" x="79.5" y="-752.4" font-family="Roboto" font-size="12.00">time</text>
<polygon fill="#bbdefb" stroke="none" points="177,-746 177,-764 285,-764 285,-746 177,-746"/>
<polygon fill="none" stroke="black" points="177,-746 177,-764 285,-764 285,-746 177,-746"/>
<text text-anchor="start" x="187.5" y="-752.4" font-family="Roboto" font-size="12.00">VARCHAR(8) ()</text>
<polygon fill="#bbdefb" stroke="none" points="10,-728 10,-746 177,-746 177,-728 10,-728"/>
<polygon fill="none" stroke="black" points="10,-728 10,-746 177,-746 177,-728 10,-728"/>
<text text-anchor="start" x="55.5" y="-734.4" font-family="Roboto" font-size="12.00">transformed</text>
<polygon fill="#bbdefb" stroke="none" points="177,-728 177,-746 285,-746 285,-728 177,-728"/>
<polygon fill="none" stroke="black" points="177,-728 177,-746 285,-746 285,-728 177,-728"/>
<text text-anchor="start" x="198" y="-734.4" font-family="Roboto" font-size="12.00">INTEGER ()</text>
<polygon fill="#bbdefb" stroke="none" points="10,-710 10,-728 177,-728 177,-710 10,-710"/>
<polygon fill="none" stroke="black" points="10,-710 10,-728 177,-728 177,-710 10,-710"/>
<text text-anchor="start" x="70.5" y="-716.4" font-family="Roboto" font-size="12.00">relation</text>
<polygon fill="#bbdefb" stroke="none" points="177,-710 177,-728 285,-728 285,-710 177,-710"/>
<polygon fill="none" stroke="black" points="177,-710 177,-728 285,-728 285,-710 177,-710"/>
<text text-anchor="start" x="180" y="-716.4" font-family="Roboto" font-size="12.00">VARCHAR(255) ()</text>
<polygon fill="#bbdefb" stroke="none" points="10,-692 10,-710 177,-710 177,-692 10,-692"/>
<polygon fill="none" stroke="black" points="10,-692 10,-710 177,-710 177,-692 10,-692"/>
<text text-anchor="start" x="77" y="-698.4" font-family="Roboto" font-size="12.00">study</text>
<polygon fill="#bbdefb" stroke="none" points="177,-692 177,-710 285,-710 285,-692 177,-692"/>
<polygon fill="none" stroke="black" points="177,-692 177,-710 285,-710 285,-692 177,-692"/>
<text text-anchor="start" x="180" y="-698.4" font-family="Roboto" font-size="12.00">VARCHAR(255) ()</text>
<polygon fill="#bbdefb" stroke="none" points="10,-674 10,-692 177,-692 177,-674 10,-674"/>
<polygon fill="none" stroke="black" points="10,-674 10,-692 177,-692 177,-674 10,-674"/>
<text text-anchor="start" x="78" y="-680.4" font-family="Roboto" font-size="12.00">table</text>
<polygon fill="#bbdefb" stroke="none" points="177,-674 177,-692 285,-692 285,-674 177,-674"/>
<polygon fill="none" stroke="black" points="177,-674 177,-692 285,-692 285,-674 177,-674"/>
<text text-anchor="start" x="180" y="-680.4" font-family="Roboto" font-size="12.00">VARCHAR(255) ()</text>
<polygon fill="#bbdefb" stroke="none" points="10,-656 10,-674 177,-674 177,-656 10,-656"/>
<polygon fill="none" stroke="black" points="10,-656 10,-674 177,-674 177,-656 10,-656"/>
<text text-anchor="start" x="37.5" y="-662.4" font-family="Roboto" font-size="12.00">source_variable_id</text>
<polygon fill="#bbdefb" stroke="none" points="177,-656 177,-674 285,-674 285,-656 177,-656"/>
<polygon fill="none" stroke="black" points="177,-656 177,-674 285,-674 285,-656 177,-656"/>
<text text-anchor="start" x="180" y="-662.4" font-family="Roboto" font-size="12.00">VARCHAR(255) ()</text>
<polygon fill="#bbdefb" stroke="none" points="10,-638 10,-656 177,-656 177,-638 10,-638"/>
<polygon fill="none" stroke="black" points="10,-638 10,-656 177,-656 177,-638 10,-638"/>
<text text-anchor="start" x="37.5" y="-644.4" font-family="Roboto" font-size="12.00">source_value_type</text>
<polygon fill="#bbdefb" stroke="none" points="177,-638 177,-656 285,-656 285,-638 177,-638"/>
<polygon fill="none" stroke="black" points="177,-638 177,-656 285,-656 285,-638 177,-638"/>
<text text-anchor="start" x="180" y="-644.4" font-family="Roboto" font-size="12.00">VARCHAR(255) ()</text>
<polygon fill="#bbdefb" stroke="none" points="10,-620 10,-638 177,-638 177,-620 10,-620"/>
<polygon fill="none" stroke="black" points="10,-620 10,-638 177,-638 177,-620 10,-620"/>
<text text-anchor="start" x="34" y="-626.4" font-family="Roboto" font-size="12.00">string_source_value</text>
<polygon fill="#bbdefb" stroke="none" points="177,-620 177,-638 285,-638 285,-620 177,-620"/>
<polygon fill="none" stroke="black" points="177,-620 177,-638 285,-638 285,-620 177,-620"/>
<text text-anchor="start" x="180" y="-626.4" font-family="Roboto" font-size="12.00">VARCHAR(255) ()</text>
<polygon fill="#bbdefb" stroke="none" points="10,-602 10,-620 177,-620 177,-602 10,-602"/>
<polygon fill="none" stroke="black" points="10,-602 10,-620 177,-620 177,-602 10,-602"/>
<text text-anchor="start" x="29.5" y="-608.4" font-family="Roboto" font-size="12.00">integer_source_value</text>
<polygon fill="#bbdefb" stroke="none" points="177,-602 177,-620 285,-620 285,-602 177,-602"/>
<polygon fill="none" stroke="black" points="177,-602 177,-620 285,-620 285,-602 177,-602"/>
<text text-anchor="start" x="198" y="-608.4" font-family="Roboto" font-size="12.00">INTEGER ()</text>
<polygon fill="#bbdefb" stroke="none" points="10,-584 10,-602 177,-602 177,-584 10,-584"/>
<polygon fill="none" stroke="black" points="10,-584 10,-602 177,-602 177,-584 10,-584"/>
<text text-anchor="start" x="37.5" y="-590.4" font-family="Roboto" font-size="12.00">float_source_value</text>
<polygon fill="#bbdefb" stroke="none" points="177,-584 177,-602 285,-602 285,-584 177,-584"/>
<polygon fill="none" stroke="black" points="177,-584 177,-602 285,-602 285,-584 177,-584"/>
<text text-anchor="start" x="205.5" y="-590.4" font-family="Roboto" font-size="12.00">FLOAT ()</text>
<polygon fill="#bbdefb" stroke="none" points="10,-566 10,-584 177,-584 177,-566 10,-566"/>
<polygon fill="none" stroke="black" points="10,-566 10,-584 177,-584 177,-566 10,-566"/>
<text text-anchor="start" x="42.5" y="-572.4" font-family="Roboto" font-size="12.00">source_encoding</text>
<polygon fill="#bbdefb" stroke="none" points="177,-566 177,-584 285,-584 285,-566 177,-566"/>
<polygon fill="none" stroke="black" points="177,-566 177,-584 285,-584 285,-566 177,-566"/>
<text text-anchor="start" x="180" y="-572.4" font-family="Roboto" font-size="12.00">VARCHAR(255) ()</text>
<polygon fill="#bbdefb" stroke="none" points="10,-548 10,-566 177,-566 177,-548 10,-548"/>
<polygon fill="none" stroke="black" points="10,-548 10,-566 177,-566 177,-548 10,-548"/>
<text text-anchor="start" x="13.5" y="-554.4" font-family="Roboto" font-size="12.00">transformation_instruction</text>
<polygon fill="#bbdefb" stroke="none" points="177,-548 177,-566 285,-566 285,-548 177,-548"/>
<polygon fill="none" stroke="black" points="177,-548 177,-566 285,-566 285,-548 177,-548"/>
<text text-anchor="start" x="180" y="-554.4" font-family="Roboto" font-size="12.00">VARCHAR(255) ()</text>
<polygon fill="#bbdefb" stroke="none" points="10,-530 10,-548 177,-548 177,-530 10,-530"/>
<polygon fill="none" stroke="black" points="10,-530 10,-548 177,-548 177,-530 10,-530"/>
<text text-anchor="start" x="63.5" y="-536.4" font-family="Roboto" font-size="12.00">data_type</text>
<polygon fill="#bbdefb" stroke="none" points="177,-530 177,-548 285,-548 285,-530 177,-530"/>
<polygon fill="none" stroke="black" points="177,-530 177,-548 285,-548 285,-530 177,-530"/>
<text text-anchor="start" x="180" y="-536.4" font-family="Roboto" font-size="12.00">VARCHAR(255) ()</text>
<polygon fill="#bbdefb" stroke="none" points="10,-512 10,-530 177,-530 177,-512 10,-512"/>
<polygon fill="none" stroke="black" points="10,-512 10,-530 177,-530 177,-512 10,-512"/>
<text text-anchor="start" x="57" y="-518.4" font-family="Roboto" font-size="12.00">string_value</text>
<polygon fill="#bbdefb" stroke="none" points="177,-512 177,-530 285,-530 285,-512 177,-512"/>
<polygon fill="none" stroke="black" points="177,-512 177,-530 285,-530 285,-512 177,-512"/>
<text text-anchor="start" x="180" y="-518.4" font-family="Roboto" font-size="12.00">VARCHAR(255) ()</text>
<polygon fill="#bbdefb" stroke="none" points="10,-494 10,-512 177,-512 177,-494 10,-494"/>
<polygon fill="none" stroke="black" points="10,-494 10,-512 177,-512 177,-494 10,-494"/>
<text text-anchor="start" x="52.5" y="-500.4" font-family="Roboto" font-size="12.00">integer_value</text>
<polygon fill="#bbdefb" stroke="none" points="177,-494 177,-512 285,-512 285,-494 177,-494"/>
<polygon fill="none" stroke="black" points="177,-494 177,-512 285,-512 285,-494 177,-494"/>
<text text-anchor="start" x="198" y="-500.4" font-family="Roboto" font-size="12.00">INTEGER ()</text>
<polygon fill="#bbdefb" stroke="none" points="10,-476 10,-494 177,-494 177,-476 10,-476"/>
<polygon fill="none" stroke="black" points="10,-476 10,-494 177,-494 177,-476 10,-476"/>
<text text-anchor="start" x="60.5" y="-482.4" font-family="Roboto" font-size="12.00">float_value</text>
<polygon fill="#bbdefb" stroke="none" points="177,-476 177,-494 285,-494 285,-476 177,-476"/>
<polygon fill="none" stroke="black" points="177,-476 177,-494 285,-494 285,-476 177,-476"/>
<text text-anchor="start" x="205.5" y="-482.4" font-family="Roboto" font-size="12.00">FLOAT ()</text>
</a>
</g>
</g>
<!-- Patient&#45;&gt;VariableData -->
<g id="edge1" class="edge"><title>Patient&#45;&gt;VariableData</title>
<g id="a_edge1"><a xlink:title="Relation between Patient and VariableData">
<path fill="none" stroke="#1e88e5" stroke-dasharray="5,2" d="M176.668,-908.207C172.301,-902.398 168.364,-896.326 165,-890 161.489,-883.399 158.405,-876.529 155.702,-869.469"/>
<polygon fill="#1e88e5" stroke="#1e88e5" points="158.89,-867.986 152.249,-859.731 152.292,-870.326 158.89,-867.986"/>
</a>
</g>
<text text-anchor="middle" x="198.5" y="-881.5" font-family="Roboto" font-size="10.00">variable_data</text>
</g>
<!-- Study -->
<g id="node3" class="node"><title>Study</title>
<g id="a_node3"><a xlink:href="http://Study_details.html" xlink:title="&lt;TABLE&gt;">
<polygon fill="#3f51b5" stroke="none" points="319,-683 319,-702 553,-702 553,-683 319,-683"/>
<polygon fill="none" stroke="black" points="319,-683 319,-702 553,-702 553,-683 319,-683"/>
<text text-anchor="start" x="419" y="-689.9" font-family="Roboto" font-size="12.00" fill="white">Study</text>
<polygon fill="#bbdefb" stroke="none" points="319,-665 319,-683 403,-683 403,-665 319,-665"/>
<polygon fill="none" stroke="black" points="319,-665 319,-683 403,-683 403,-665 319,-665"/>
<text text-anchor="start" x="355.5" y="-671.4" font-family="Roboto" font-size="12.00">id</text>
<polygon fill="#bbdefb" stroke="none" points="403,-665 403,-683 553,-683 553,-665 403,-665"/>
<polygon fill="none" stroke="black" points="403,-665 403,-683 553,-683 553,-665 403,-665"/>
<text text-anchor="start" x="437" y="-671.4" font-family="Roboto" font-size="12.00">INTEGER (PK)</text>
<polygon fill="#bbdefb" stroke="none" points="319,-647 319,-665 403,-665 403,-647 319,-647"/>
<polygon fill="none" stroke="black" points="319,-647 319,-665 403,-665 403,-647 319,-647"/>
<text text-anchor="start" x="343.5" y="-653.4" font-family="Roboto" font-size="12.00">name</text>
<polygon fill="#bbdefb" stroke="none" points="403,-647 403,-665 553,-665 553,-647 403,-647"/>
<polygon fill="none" stroke="black" points="403,-647 403,-665 553,-665 553,-647 403,-647"/>
<text text-anchor="start" x="406" y="-653.4" font-family="Roboto" font-size="12.00">VARCHAR(255) (Unique)</text>
<polygon fill="#bbdefb" stroke="none" points="319,-629 319,-647 403,-647 403,-629 319,-629"/>
<polygon fill="none" stroke="black" points="319,-629 319,-647 403,-647 403,-629 319,-629"/>
<text text-anchor="start" x="322.5" y="-635.4" font-family="Roboto" font-size="12.00">table_names</text>
<polygon fill="#bbdefb" stroke="none" points="403,-629 403,-647 553,-647 553,-629 403,-629"/>
<polygon fill="none" stroke="black" points="403,-629 403,-647 553,-647 553,-629 403,-629"/>
<text text-anchor="start" x="456.5" y="-635.4" font-family="Roboto" font-size="12.00">JSON ()</text>
</a>
</g>
</g>
<!-- Patient&#45;&gt;Study -->
<g id="edge2" class="edge"><title>Patient&#45;&gt;Study</title>
<g id="a_edge2"><a xlink:title="Relation between Patient and Study">
<path fill="none" stroke="#1e88e5" stroke-dasharray="5,2" d="M330.938,-908.198C357.495,-847.23 392.384,-767.132 414.507,-716.344"/>
<polygon fill="#1e88e5" stroke="#1e88e5" points="417.834,-717.468 418.619,-706.903 411.417,-714.673 417.834,-717.468"/>
</a>
</g>
<text text-anchor="middle" x="358" y="-881.5" font-family="Roboto" font-size="10.00">study</text>
</g>
<!-- VariableData&#45;&gt;Patient -->
<g id="edge3" class="edge"><title>VariableData&#45;&gt;Patient</title>
<g id="a_edge3"><a xlink:title="Relation between VariableData and Patient">
<path fill="none" stroke="#1e88e5" stroke-dasharray="5,2" d="M233.808,-859.512C239.888,-872.997 245.843,-886.203 251.498,-898.744"/>
<polygon fill="#1e88e5" stroke="#1e88e5" points="248.46,-900.521 255.761,-908.198 254.841,-897.644 248.46,-900.521"/>
</a>
</g>
<text text-anchor="middle" x="264.5" y="-881.5" font-family="Roboto" font-size="10.00">patient</text>
</g>
<!-- Codebook -->
<g id="node4" class="node"><title>Codebook</title>
<g id="a_node4"><a xlink:href="http://Codebook_details.html" xlink:title="&lt;TABLE&gt;">
<polygon fill="#3f51b5" stroke="none" points="8,-400 8,-419 286,-419 286,-400 8,-400"/>
<polygon fill="none" stroke="black" points="8,-400 8,-419 286,-419 286,-400 8,-400"/>
<text text-anchor="start" x="116.5" y="-406.9" font-family="Roboto" font-size="12.00" fill="white">Codebook</text>
<polygon fill="#bbdefb" stroke="none" points="8,-382 8,-400 178,-400 178,-382 8,-382"/>
<polygon fill="none" stroke="black" points="8,-382 8,-400 178,-400 178,-382 8,-382"/>
<text text-anchor="start" x="87.5" y="-388.4" font-family="Roboto" font-size="12.00">id</text>
<polygon fill="#bbdefb" stroke="none" points="178,-382 178,-400 286,-400 286,-382 178,-382"/>
<polygon fill="none" stroke="black" points="178,-382 178,-400 286,-400 286,-382 178,-382"/>
<text text-anchor="start" x="191" y="-388.4" font-family="Roboto" font-size="12.00">INTEGER (PK)</text>
<polygon fill="#bbdefb" stroke="none" points="8,-364 8,-382 178,-382 178,-364 8,-364"/>
<polygon fill="none" stroke="black" points="8,-364 8,-382 178,-382 178,-364 8,-364"/>
<text text-anchor="start" x="48.5" y="-370.4" font-family="Roboto" font-size="12.00">variable_name</text>
<polygon fill="#bbdefb" stroke="none" points="178,-364 178,-382 286,-382 286,-364 178,-364"/>
<polygon fill="none" stroke="black" points="178,-364 178,-382 286,-382 286,-364 178,-364"/>
<text text-anchor="start" x="181" y="-370.4" font-family="Roboto" font-size="12.00">VARCHAR(255) ()</text>
<polygon fill="#bbdefb" stroke="none" points="8,-346 8,-364 178,-364 178,-346 8,-346"/>
<polygon fill="none" stroke="black" points="8,-346 8,-364 178,-364 178,-346 8,-346"/>
<text text-anchor="start" x="28" y="-352.4" font-family="Roboto" font-size="12.00">variable_abbreviation</text>
<polygon fill="#bbdefb" stroke="none" points="178,-346 178,-364 286,-364 286,-346 178,-346"/>
<polygon fill="none" stroke="black" points="178,-346 178,-364 286,-364 286,-346 178,-346"/>
<text text-anchor="start" x="185" y="-352.4" font-family="Roboto" font-size="12.00">VARCHAR(50) ()</text>
<polygon fill="#bbdefb" stroke="none" points="8,-328 8,-346 178,-346 178,-328 8,-328"/>
<polygon fill="none" stroke="black" points="8,-328 8,-346 178,-346 178,-328 8,-328"/>
<text text-anchor="start" x="59.5" y="-334.4" font-family="Roboto" font-size="12.00">description</text>
<polygon fill="#bbdefb" stroke="none" points="178,-328 178,-346 286,-346 286,-328 178,-328"/>
<polygon fill="none" stroke="black" points="178,-328 178,-346 286,-346 286,-328 178,-328"/>
<text text-anchor="start" x="197" y="-334.4" font-family="Roboto" font-size="12.00">VARCHAR ()</text>
<polygon fill="#bbdefb" stroke="none" points="8,-310 8,-328 178,-328 178,-310 8,-310"/>
<polygon fill="none" stroke="black" points="8,-310 8,-328 178,-328 178,-310 8,-310"/>
<text text-anchor="start" x="52.5" y="-316.4" font-family="Roboto" font-size="12.00">variable_type</text>
<polygon fill="#bbdefb" stroke="none" points="178,-310 178,-328 286,-328 286,-310 178,-310"/>
<polygon fill="none" stroke="black" points="178,-310 178,-328 286,-328 286,-310 178,-310"/>
<text text-anchor="start" x="185" y="-316.4" font-family="Roboto" font-size="12.00">VARCHAR(50) ()</text>
<polygon fill="#bbdefb" stroke="none" points="8,-292 8,-310 178,-310 178,-292 8,-292"/>
<polygon fill="none" stroke="black" points="8,-292 8,-310 178,-310 178,-292 8,-292"/>
<text text-anchor="start" x="39" y="-298.4" font-family="Roboto" font-size="12.00">variable_category</text>
<polygon fill="#bbdefb" stroke="none" points="178,-292 178,-310 286,-310 286,-292 178,-292"/>
<polygon fill="none" stroke="black" points="178,-292 178,-310 286,-310 286,-292 178,-292"/>
<text text-anchor="start" x="185" y="-298.4" font-family="Roboto" font-size="12.00">VARCHAR(50) ()</text>
<polygon fill="#bbdefb" stroke="none" points="8,-274 8,-292 178,-292 178,-274 8,-274"/>
<polygon fill="none" stroke="black" points="8,-274 8,-292 178,-292 178,-274 8,-274"/>
<text text-anchor="start" x="49" y="-280.4" font-family="Roboto" font-size="12.00">ontology_code</text>
<polygon fill="#bbdefb" stroke="none" points="178,-274 178,-292 286,-292 286,-274 178,-274"/>
<polygon fill="none" stroke="black" points="178,-274 178,-292 286,-292 286,-274 178,-274"/>
<text text-anchor="start" x="185" y="-280.4" font-family="Roboto" font-size="12.00">VARCHAR(50) ()</text>
<polygon fill="#bbdefb" stroke="none" points="8,-256 8,-274 178,-274 178,-256 8,-256"/>
<polygon fill="none" stroke="black" points="8,-256 8,-274 178,-274 178,-256 8,-256"/>
<text text-anchor="start" x="85" y="-262.4" font-family="Roboto" font-size="12.00">url</text>
<polygon fill="#bbdefb" stroke="none" points="178,-256 178,-274 286,-274 286,-256 178,-256"/>
<polygon fill="none" stroke="black" points="178,-256 178,-274 286,-274 286,-256 178,-256"/>
<text text-anchor="start" x="181" y="-262.4" font-family="Roboto" font-size="12.00">VARCHAR(255) ()</text>
<polygon fill="#bbdefb" stroke="none" points="8,-238 8,-256 178,-256 178,-238 8,-238"/>
<polygon fill="none" stroke="black" points="8,-238 8,-256 178,-256 178,-238 8,-238"/>
<text text-anchor="start" x="11.5" y="-244.4" font-family="Roboto" font-size="12.00">associated_ontology_codes</text>
<polygon fill="#bbdefb" stroke="none" points="178,-238 178,-256 286,-256 286,-238 178,-238"/>
<polygon fill="none" stroke="black" points="178,-238 178,-256 286,-256 286,-238 178,-238"/>
<text text-anchor="start" x="210.5" y="-244.4" font-family="Roboto" font-size="12.00">JSON ()</text>
<polygon fill="#bbdefb" stroke="none" points="8,-220 8,-238 178,-238 178,-220 8,-220"/>
<polygon fill="none" stroke="black" points="8,-220 8,-238 178,-238 178,-220 8,-220"/>
<text text-anchor="start" x="82.5" y="-226.4" font-family="Roboto" font-size="12.00">rp1</text>
<polygon fill="#bbdefb" stroke="none" points="178,-220 178,-238 286,-238 286,-220 178,-220"/>
<polygon fill="none" stroke="black" points="178,-220 178,-238 286,-238 286,-220 178,-220"/>
<text text-anchor="start" x="199" y="-226.4" font-family="Roboto" font-size="12.00">INTEGER ()</text>
<polygon fill="#bbdefb" stroke="none" points="8,-202 8,-220 178,-220 178,-202 8,-202"/>
<polygon fill="none" stroke="black" points="8,-202 8,-220 178,-220 178,-202 8,-202"/>
<text text-anchor="start" x="82.5" y="-208.4" font-family="Roboto" font-size="12.00">rp2</text>
<polygon fill="#bbdefb" stroke="none" points="178,-202 178,-220 286,-220 286,-202 178,-202"/>
<polygon fill="none" stroke="black" points="178,-202 178,-220 286,-220 286,-202 178,-202"/>
<text text-anchor="start" x="199" y="-208.4" font-family="Roboto" font-size="12.00">INTEGER ()</text>
<polygon fill="#bbdefb" stroke="none" points="8,-184 8,-202 178,-202 178,-184 8,-184"/>
<polygon fill="none" stroke="black" points="8,-184 8,-202 178,-202 178,-184 8,-184"/>
<text text-anchor="start" x="81.5" y="-190.4" font-family="Roboto" font-size="12.00">unit</text>
<polygon fill="#bbdefb" stroke="none" points="178,-184 178,-202 286,-202 286,-184 178,-184"/>
<polygon fill="none" stroke="black" points="178,-184 178,-202 286,-202 286,-184 178,-184"/>
<text text-anchor="start" x="185" y="-190.4" font-family="Roboto" font-size="12.00">VARCHAR(50) ()</text>
<polygon fill="#bbdefb" stroke="none" points="8,-166 8,-184 178,-184 178,-166 8,-166"/>
<polygon fill="none" stroke="black" points="8,-166 8,-184 178,-184 178,-166 8,-166"/>
<text text-anchor="start" x="61" y="-172.4" font-family="Roboto" font-size="12.00">categories</text>
<polygon fill="#bbdefb" stroke="none" points="178,-166 178,-184 286,-184 286,-166 178,-166"/>
<polygon fill="none" stroke="black" points="178,-166 178,-184 286,-184 286,-166 178,-166"/>
<text text-anchor="start" x="210.5" y="-172.4" font-family="Roboto" font-size="12.00">JSON ()</text>
<polygon fill="#bbdefb" stroke="none" points="8,-148 8,-166 178,-166 178,-148 8,-148"/>
<polygon fill="none" stroke="black" points="8,-148 8,-166 178,-166 178,-148 8,-148"/>
<text text-anchor="start" x="52.5" y="-154.4" font-family="Roboto" font-size="12.00">unit_example</text>
<polygon fill="#bbdefb" stroke="none" points="178,-148 178,-166 286,-166 286,-148 178,-148"/>
<polygon fill="none" stroke="black" points="178,-148 178,-166 286,-166 286,-148 178,-148"/>
<text text-anchor="start" x="185" y="-154.4" font-family="Roboto" font-size="12.00">VARCHAR(50) ()</text>
<polygon fill="#bbdefb" stroke="none" points="8,-130 8,-148 178,-148 178,-130 8,-130"/>
<polygon fill="none" stroke="black" points="8,-130 8,-148 178,-148 178,-130 8,-130"/>
<text text-anchor="start" x="76" y="-136.4" font-family="Roboto" font-size="12.00">dtype</text>
<polygon fill="#bbdefb" stroke="none" points="178,-130 178,-148 286,-148 286,-130 178,-130"/>
<polygon fill="none" stroke="black" points="178,-130 178,-148 286,-148 286,-130 178,-130"/>
<text text-anchor="start" x="185" y="-136.4" font-family="Roboto" font-size="12.00">VARCHAR(50) ()</text>
<polygon fill="#bbdefb" stroke="none" points="8,-112 8,-130 178,-130 178,-112 8,-112"/>
<polygon fill="none" stroke="black" points="8,-112 8,-130 178,-130 178,-112 8,-112"/>
<text text-anchor="start" x="50" y="-118.4" font-family="Roboto" font-size="12.00">valid_low_limit</text>
<polygon fill="#bbdefb" stroke="none" points="178,-112 178,-130 286,-130 286,-112 178,-112"/>
<polygon fill="none" stroke="black" points="178,-112 178,-130 286,-130 286,-112 178,-112"/>
<text text-anchor="start" x="185" y="-118.4" font-family="Roboto" font-size="12.00">VARCHAR(50) ()</text>
<polygon fill="#bbdefb" stroke="none" points="8,-94 8,-112 178,-112 178,-94 8,-94"/>
<polygon fill="none" stroke="black" points="8,-94 8,-112 178,-112 178,-94 8,-94"/>
<text text-anchor="start" x="47.5" y="-100.4" font-family="Roboto" font-size="12.00">valid_high_limit</text>
<polygon fill="#bbdefb" stroke="none" points="178,-94 178,-112 286,-112 286,-94 178,-94"/>
<polygon fill="none" stroke="black" points="178,-94 178,-112 286,-112 286,-94 178,-94"/>
<text text-anchor="start" x="185" y="-100.4" font-family="Roboto" font-size="12.00">VARCHAR(50) ()</text>
<polygon fill="#bbdefb" stroke="none" points="8,-76 8,-94 178,-94 178,-76 8,-76"/>
<polygon fill="none" stroke="black" points="8,-76 8,-94 178,-94 178,-76 8,-76"/>
<text text-anchor="start" x="36" y="-82.4" font-family="Roboto" font-size="12.00">normal_lower_limit</text>
<polygon fill="#bbdefb" stroke="none" points="178,-76 178,-94 286,-94 286,-76 178,-76"/>
<polygon fill="none" stroke="black" points="178,-76 178,-94 286,-94 286,-76 178,-76"/>
<text text-anchor="start" x="185" y="-82.4" font-family="Roboto" font-size="12.00">VARCHAR(50) ()</text>
<polygon fill="#bbdefb" stroke="none" points="8,-58 8,-76 178,-76 178,-58 8,-58"/>
<polygon fill="none" stroke="black" points="8,-58 8,-76 178,-76 178,-58 8,-58"/>
<text text-anchor="start" x="35" y="-64.4" font-family="Roboto" font-size="12.00">normal_upper_limit</text>
<polygon fill="#bbdefb" stroke="none" points="178,-58 178,-76 286,-76 286,-58 178,-58"/>
<polygon fill="none" stroke="black" points="178,-58 178,-76 286,-76 286,-58 178,-58"/>
<text text-anchor="start" x="185" y="-64.4" font-family="Roboto" font-size="12.00">VARCHAR(50) ()</text>
<polygon fill="#bbdefb" stroke="none" points="8,-40 8,-58 178,-58 178,-40 8,-40"/>
<polygon fill="none" stroke="black" points="8,-40 8,-58 178,-58 178,-40 8,-40"/>
<text text-anchor="start" x="66" y="-46.4" font-family="Roboto" font-size="12.00">standard</text>
<polygon fill="#bbdefb" stroke="none" points="178,-40 178,-58 286,-58 286,-40 178,-40"/>
<polygon fill="none" stroke="black" points="178,-40 178,-58 286,-58 286,-40 178,-40"/>
<text text-anchor="start" x="185" y="-46.4" font-family="Roboto" font-size="12.00">VARCHAR(50) ()</text>
<polygon fill="#bbdefb" stroke="none" points="8,-22 8,-40 178,-40 178,-22 8,-22"/>
<polygon fill="none" stroke="black" points="8,-22 8,-40 178,-40 178,-22 8,-22"/>
<text text-anchor="start" x="31.5" y="-28.4" font-family="Roboto" font-size="12.00">method_determined</text>
<polygon fill="#bbdefb" stroke="none" points="178,-22 178,-40 286,-40 286,-22 178,-22"/>
<polygon fill="none" stroke="black" points="178,-22 178,-40 286,-40 286,-22 178,-22"/>
<text text-anchor="start" x="185" y="-28.4" font-family="Roboto" font-size="12.00">VARCHAR(50) ()</text>
<polygon fill="#bbdefb" stroke="none" points="8,-4 8,-22 178,-22 178,-4 8,-4"/>
<polygon fill="none" stroke="black" points="8,-4 8,-22 178,-22 178,-4 8,-4"/>
<text text-anchor="start" x="31" y="-10.4" font-family="Roboto" font-size="12.00">associated_variables</text>
<polygon fill="#bbdefb" stroke="none" points="178,-4 178,-22 286,-22 286,-4 178,-4"/>
<polygon fill="none" stroke="black" points="178,-4 178,-22 286,-22 286,-4 178,-4"/>
<text text-anchor="start" x="210.5" y="-10.4" font-family="Roboto" font-size="12.00">JSON ()</text>
</a>
</g>
</g>
<!-- VariableData&#45;&gt;Codebook -->
<g id="edge4" class="edge"><title>VariableData&#45;&gt;Codebook</title>
<g id="a_edge4"><a xlink:title="Relation between VariableData and Codebook">
<path fill="none" stroke="#1e88e5" stroke-dasharray="5,2" d="M147,-472.328C147,-459.634 147,-446.796 147,-433.981"/>
<polygon fill="#1e88e5" stroke="#1e88e5" points="150.5,-433.71 147,-423.71 143.5,-433.71 150.5,-433.71"/>
</a>
</g>
<text text-anchor="middle" x="183.5" y="-445.5" font-family="Roboto" font-size="10.00">variable_name</text>
</g>
<!-- Study&#45;&gt;Patient -->
<g id="edge5" class="edge"><title>Study&#45;&gt;Patient</title>
<g id="a_edge5"><a xlink:title="Relation between Study and Patient">
<path fill="none" stroke="#1e88e5" stroke-dasharray="5,2" d="M430.367,-706.622C422.712,-752.626 406.36,-829.876 376,-890 374.406,-893.156 372.706,-896.307 370.917,-899.441"/>
<polygon fill="#1e88e5" stroke="#1e88e5" points="367.793,-897.845 365.659,-908.223 373.799,-901.442 367.793,-897.845"/>
</a>
</g>
<text text-anchor="middle" x="402" y="-881.5" font-family="Roboto" font-size="10.00">patients</text>
</g>
</g>
</svg>
