<?xml version="1.0" encoding="UTF-8" standalone="no"?>
<!DOCTYPE svg PUBLIC "-//W3C//DTD SVG 1.1//EN"
 "http://www.w3.org/Graphics/SVG/1.1/DTD/svg11.dtd">
<!-- Generated by graphviz version 7.1.0 (20230122.1345)
 -->
<!-- Pages: 1 -->
<svg width="566pt" height="1133pt"
 viewBox="0.00 0.00 566.00 1133.00" xmlns="http://www.w3.org/2000/svg" xmlns:xlink="http://www.w3.org/1999/xlink">
<g id="graph0" class="graph" transform="scale(1 1) rotate(0) translate(4 1129)">
<polygon fill="#eeeeee" stroke="none" points="-4,4 -4,-1129 562,-1129 562,4 -4,4"/>
<!-- Patient -->
<g id="node1" class="node">
<title>Patient</title>
<g id="a_node1"><a xlink:href="http://Patient_details.html" xlink:title="&lt;TABLE&gt;">
<polygon fill="#3f51b5" stroke="none" points="179.5,-1101.5 179.5,-1120.5 406.5,-1120.5 406.5,-1101.5 179.5,-1101.5"/>
<polygon fill="none" stroke="black" points="179.5,-1101.5 179.5,-1120.5 406.5,-1120.5 406.5,-1101.5 179.5,-1101.5"/>
<text text-anchor="start" x="272" y="-1107.9" font-family="Roboto" font-size="12.00" fill="white">Patient</text>
<polygon fill="#bbdefb" stroke="none" points="179.5,-1082.5 179.5,-1101.5 264.5,-1101.5 264.5,-1082.5 179.5,-1082.5"/>
<polygon fill="none" stroke="black" points="179.5,-1082.5 179.5,-1101.5 264.5,-1101.5 264.5,-1082.5 179.5,-1082.5"/>
<text text-anchor="start" x="216.5" y="-1088.9" font-family="Roboto" font-size="12.00">id</text>
<polygon fill="#bbdefb" stroke="none" points="264.5,-1082.5 264.5,-1101.5 406.5,-1101.5 406.5,-1082.5 264.5,-1082.5"/>
<polygon fill="none" stroke="black" points="264.5,-1082.5 264.5,-1101.5 406.5,-1101.5 406.5,-1082.5 264.5,-1082.5"/>
<text text-anchor="start" x="295" y="-1088.9" font-family="Roboto" font-size="12.00">INTEGER (PK)</text>
<polygon fill="#bbdefb" stroke="none" points="179.5,-1063.5 179.5,-1082.5 264.5,-1082.5 264.5,-1063.5 179.5,-1063.5"/>
<polygon fill="none" stroke="black" points="179.5,-1063.5 179.5,-1082.5 264.5,-1082.5 264.5,-1063.5 179.5,-1063.5"/>
<text text-anchor="start" x="192.5" y="-1069.9" font-family="Roboto" font-size="12.00">patient_id</text>
<polygon fill="#bbdefb" stroke="none" points="264.5,-1063.5 264.5,-1082.5 406.5,-1082.5 406.5,-1063.5 264.5,-1063.5"/>
<polygon fill="none" stroke="black" points="264.5,-1063.5 264.5,-1082.5 406.5,-1082.5 406.5,-1063.5 264.5,-1063.5"/>
<text text-anchor="start" x="267.5" y="-1069.9" font-family="Roboto" font-size="12.00">VARCHAR(64) (Unique)</text>
<polygon fill="#bbdefb" stroke="none" points="179.5,-1044.5 179.5,-1063.5 264.5,-1063.5 264.5,-1044.5 179.5,-1044.5"/>
<polygon fill="none" stroke="black" points="179.5,-1044.5 179.5,-1063.5 264.5,-1063.5 264.5,-1044.5 179.5,-1044.5"/>
<text text-anchor="start" x="208" y="-1050.9" font-family="Roboto" font-size="12.00">race</text>
<polygon fill="#bbdefb" stroke="none" points="264.5,-1044.5 264.5,-1063.5 406.5,-1063.5 406.5,-1044.5 264.5,-1044.5"/>
<polygon fill="none" stroke="black" points="264.5,-1044.5 264.5,-1063.5 406.5,-1063.5 406.5,-1044.5 264.5,-1044.5"/>
<text text-anchor="start" x="284.5" y="-1050.9" font-family="Roboto" font-size="12.00">VARCHAR(255) ()</text>
<polygon fill="#bbdefb" stroke="none" points="179.5,-1025.5 179.5,-1044.5 264.5,-1044.5 264.5,-1025.5 179.5,-1025.5"/>
<polygon fill="none" stroke="black" points="179.5,-1025.5 179.5,-1044.5 264.5,-1044.5 264.5,-1025.5 179.5,-1025.5"/>
<text text-anchor="start" x="211.5" y="-1031.9" font-family="Roboto" font-size="12.00">sex</text>
<polygon fill="#bbdefb" stroke="none" points="264.5,-1025.5 264.5,-1044.5 406.5,-1044.5 406.5,-1025.5 264.5,-1025.5"/>
<polygon fill="none" stroke="black" points="264.5,-1025.5 264.5,-1044.5 406.5,-1044.5 406.5,-1025.5 264.5,-1025.5"/>
<text text-anchor="start" x="284.5" y="-1031.9" font-family="Roboto" font-size="12.00">VARCHAR(255) ()</text>
<polygon fill="#bbdefb" stroke="none" points="179.5,-1006.5 179.5,-1025.5 264.5,-1025.5 264.5,-1006.5 179.5,-1006.5"/>
<polygon fill="none" stroke="black" points="179.5,-1006.5 179.5,-1025.5 264.5,-1025.5 264.5,-1006.5 179.5,-1006.5"/>
<text text-anchor="start" x="202" y="-1012.9" font-family="Roboto" font-size="12.00">is_twin</text>
<polygon fill="#bbdefb" stroke="none" points="264.5,-1006.5 264.5,-1025.5 406.5,-1025.5 406.5,-1006.5 264.5,-1006.5"/>
<polygon fill="none" stroke="black" points="264.5,-1006.5 264.5,-1025.5 406.5,-1025.5 406.5,-1006.5 264.5,-1006.5"/>
<text text-anchor="start" x="302.5" y="-1012.9" font-family="Roboto" font-size="12.00">INTEGER ()</text>
<polygon fill="#bbdefb" stroke="none" points="179.5,-987.5 179.5,-1006.5 264.5,-1006.5 264.5,-987.5 179.5,-987.5"/>
<polygon fill="none" stroke="black" points="179.5,-987.5 179.5,-1006.5 264.5,-1006.5 264.5,-987.5 179.5,-987.5"/>
<text text-anchor="start" x="201" y="-993.9" font-family="Roboto" font-size="12.00">twin_id</text>
<polygon fill="#bbdefb" stroke="none" points="264.5,-987.5 264.5,-1006.5 406.5,-1006.5 406.5,-987.5 264.5,-987.5"/>
<polygon fill="none" stroke="black" points="264.5,-987.5 264.5,-1006.5 406.5,-1006.5 406.5,-987.5 264.5,-987.5"/>
<text text-anchor="start" x="288.5" y="-993.9" font-family="Roboto" font-size="12.00">VARCHAR(64) ()</text>
<polygon fill="#bbdefb" stroke="none" points="179.5,-968.5 179.5,-987.5 264.5,-987.5 264.5,-968.5 179.5,-968.5"/>
<polygon fill="none" stroke="black" points="179.5,-968.5 179.5,-987.5 264.5,-987.5 264.5,-968.5 179.5,-968.5"/>
<text text-anchor="start" x="182.5" y="-974.9" font-family="Roboto" font-size="12.00">date_of_birth</text>
<polygon fill="#bbdefb" stroke="none" points="264.5,-968.5 264.5,-987.5 406.5,-987.5 406.5,-968.5 264.5,-968.5"/>
<polygon fill="none" stroke="black" points="264.5,-968.5 264.5,-987.5 406.5,-987.5 406.5,-968.5 264.5,-968.5"/>
<text text-anchor="start" x="288.5" y="-974.9" font-family="Roboto" font-size="12.00">VARCHAR(10) ()</text>
<polygon fill="#bbdefb" stroke="none" points="179.5,-949.5 179.5,-968.5 264.5,-968.5 264.5,-949.5 179.5,-949.5"/>
<polygon fill="none" stroke="black" points="179.5,-949.5 179.5,-968.5 264.5,-968.5 264.5,-949.5 179.5,-949.5"/>
<text text-anchor="start" x="197.5" y="-955.9" font-family="Roboto" font-size="12.00">study_id</text>
<polygon fill="#bbdefb" stroke="none" points="264.5,-949.5 264.5,-968.5 406.5,-968.5 406.5,-949.5 264.5,-949.5"/>
<polygon fill="none" stroke="black" points="264.5,-949.5 264.5,-968.5 406.5,-968.5 406.5,-949.5 264.5,-949.5"/>
<text text-anchor="start" x="284.5" y="-955.9" font-family="Roboto" font-size="12.00">VARCHAR(255) ()</text>
</a>
</g>
</g>
<!-- VariableData -->
<g id="node2" class="node">
<title>VariableData</title>
<g id="a_node2"><a xlink:href="http://VariableData_details.html" xlink:title="&lt;TABLE&gt;">
<polygon fill="#3f51b5" stroke="none" points="10.5,-875.5 10.5,-894.5 283.5,-894.5 283.5,-875.5 10.5,-875.5"/>
<polygon fill="none" stroke="black" points="10.5,-875.5 10.5,-894.5 283.5,-894.5 283.5,-875.5 10.5,-875.5"/>
<text text-anchor="start" x="108" y="-881.9" font-family="Roboto" font-size="12.00" fill="white">VariableData</text>
<polygon fill="#bbdefb" stroke="none" points="10.5,-856.5 10.5,-875.5 175.5,-875.5 175.5,-856.5 10.5,-856.5"/>
<polygon fill="none" stroke="black" points="10.5,-856.5 10.5,-875.5 175.5,-875.5 175.5,-856.5 10.5,-856.5"/>
<text text-anchor="start" x="87.5" y="-862.9" font-family="Roboto" font-size="12.00">id</text>
<polygon fill="#bbdefb" stroke="none" points="175.5,-856.5 175.5,-875.5 283.5,-875.5 283.5,-856.5 175.5,-856.5"/>
<polygon fill="none" stroke="black" points="175.5,-856.5 175.5,-875.5 283.5,-875.5 283.5,-856.5 175.5,-856.5"/>
<text text-anchor="start" x="189" y="-862.9" font-family="Roboto" font-size="12.00">INTEGER (PK)</text>
<polygon fill="#bbdefb" stroke="none" points="10.5,-837.5 10.5,-856.5 175.5,-856.5 175.5,-837.5 10.5,-837.5"/>
<polygon fill="none" stroke="black" points="10.5,-837.5 10.5,-856.5 175.5,-856.5 175.5,-837.5 10.5,-837.5"/>
<text text-anchor="start" x="63.5" y="-843.9" font-family="Roboto" font-size="12.00">patient_id</text>
<polygon fill="#bbdefb" stroke="none" points="175.5,-837.5 175.5,-856.5 283.5,-856.5 283.5,-837.5 175.5,-837.5"/>
<polygon fill="none" stroke="black" points="175.5,-837.5 175.5,-856.5 283.5,-856.5 283.5,-837.5 175.5,-837.5"/>
<text text-anchor="start" x="178.5" y="-843.9" font-family="Roboto" font-size="12.00">VARCHAR(255) ()</text>
<polygon fill="#bbdefb" stroke="none" points="10.5,-818.5 10.5,-837.5 175.5,-837.5 175.5,-818.5 10.5,-818.5"/>
<polygon fill="none" stroke="black" points="10.5,-818.5 10.5,-837.5 175.5,-837.5 175.5,-818.5 10.5,-818.5"/>
<text text-anchor="start" x="60.5" y="-824.9" font-family="Roboto" font-size="12.00">variable_id</text>
<polygon fill="#bbdefb" stroke="none" points="175.5,-818.5 175.5,-837.5 283.5,-837.5 283.5,-818.5 175.5,-818.5"/>
<polygon fill="none" stroke="black" points="175.5,-818.5 175.5,-837.5 283.5,-837.5 283.5,-818.5 175.5,-818.5"/>
<text text-anchor="start" x="178.5" y="-824.9" font-family="Roboto" font-size="12.00">VARCHAR(255) ()</text>
<polygon fill="#bbdefb" stroke="none" points="10.5,-799.5 10.5,-818.5 175.5,-818.5 175.5,-799.5 10.5,-799.5"/>
<polygon fill="none" stroke="black" points="10.5,-799.5 10.5,-818.5 175.5,-818.5 175.5,-799.5 10.5,-799.5"/>
<text text-anchor="start" x="79" y="-805.9" font-family="Roboto" font-size="12.00">date</text>
<polygon fill="#bbdefb" stroke="none" points="175.5,-799.5 175.5,-818.5 283.5,-818.5 283.5,-799.5 175.5,-799.5"/>
<polygon fill="none" stroke="black" points="175.5,-799.5 175.5,-818.5 283.5,-818.5 283.5,-799.5 175.5,-799.5"/>
<text text-anchor="start" x="182.5" y="-805.9" font-family="Roboto" font-size="12.00">VARCHAR(10) ()</text>
<polygon fill="#bbdefb" stroke="none" points="10.5,-780.5 10.5,-799.5 175.5,-799.5 175.5,-780.5 10.5,-780.5"/>
<polygon fill="none" stroke="black" points="10.5,-780.5 10.5,-799.5 175.5,-799.5 175.5,-780.5 10.5,-780.5"/>
<text text-anchor="start" x="79" y="-786.9" font-family="Roboto" font-size="12.00">time</text>
<polygon fill="#bbdefb" stroke="none" points="175.5,-780.5 175.5,-799.5 283.5,-799.5 283.5,-780.5 175.5,-780.5"/>
<polygon fill="none" stroke="black" points="175.5,-780.5 175.5,-799.5 283.5,-799.5 283.5,-780.5 175.5,-780.5"/>
<text text-anchor="start" x="186" y="-786.9" font-family="Roboto" font-size="12.00">VARCHAR(8) ()</text>
<polygon fill="#bbdefb" stroke="none" points="10.5,-761.5 10.5,-780.5 175.5,-780.5 175.5,-761.5 10.5,-761.5"/>
<polygon fill="none" stroke="black" points="10.5,-761.5 10.5,-780.5 175.5,-780.5 175.5,-761.5 10.5,-761.5"/>
<text text-anchor="start" x="55.5" y="-767.9" font-family="Roboto" font-size="12.00">transformed</text>
<polygon fill="#bbdefb" stroke="none" points="175.5,-761.5 175.5,-780.5 283.5,-780.5 283.5,-761.5 175.5,-761.5"/>
<polygon fill="none" stroke="black" points="175.5,-761.5 175.5,-780.5 283.5,-780.5 283.5,-761.5 175.5,-761.5"/>
<text text-anchor="start" x="196.5" y="-767.9" font-family="Roboto" font-size="12.00">INTEGER ()</text>
<polygon fill="#bbdefb" stroke="none" points="10.5,-742.5 10.5,-761.5 175.5,-761.5 175.5,-742.5 10.5,-742.5"/>
<polygon fill="none" stroke="black" points="10.5,-742.5 10.5,-761.5 175.5,-761.5 175.5,-742.5 10.5,-742.5"/>
<text text-anchor="start" x="70" y="-748.9" font-family="Roboto" font-size="12.00">relation</text>
<polygon fill="#bbdefb" stroke="none" points="175.5,-742.5 175.5,-761.5 283.5,-761.5 283.5,-742.5 175.5,-742.5"/>
<polygon fill="none" stroke="black" points="175.5,-742.5 175.5,-761.5 283.5,-761.5 283.5,-742.5 175.5,-742.5"/>
<text text-anchor="start" x="178.5" y="-748.9" font-family="Roboto" font-size="12.00">VARCHAR(255) ()</text>
<polygon fill="#bbdefb" stroke="none" points="10.5,-723.5 10.5,-742.5 175.5,-742.5 175.5,-723.5 10.5,-723.5"/>
<polygon fill="none" stroke="black" points="10.5,-723.5 10.5,-742.5 175.5,-742.5 175.5,-723.5 10.5,-723.5"/>
<text text-anchor="start" x="76.5" y="-729.9" font-family="Roboto" font-size="12.00">study</text>
<polygon fill="#bbdefb" stroke="none" points="175.5,-723.5 175.5,-742.5 283.5,-742.5 283.5,-723.5 175.5,-723.5"/>
<polygon fill="none" stroke="black" points="175.5,-723.5 175.5,-742.5 283.5,-742.5 283.5,-723.5 175.5,-723.5"/>
<text text-anchor="start" x="178.5" y="-729.9" font-family="Roboto" font-size="12.00">VARCHAR(255) ()</text>
<polygon fill="#bbdefb" stroke="none" points="10.5,-704.5 10.5,-723.5 175.5,-723.5 175.5,-704.5 10.5,-704.5"/>
<polygon fill="none" stroke="black" points="10.5,-704.5 10.5,-723.5 175.5,-723.5 175.5,-704.5 10.5,-704.5"/>
<text text-anchor="start" x="77.5" y="-710.9" font-family="Roboto" font-size="12.00">table</text>
<polygon fill="#bbdefb" stroke="none" points="175.5,-704.5 175.5,-723.5 283.5,-723.5 283.5,-704.5 175.5,-704.5"/>
<polygon fill="none" stroke="black" points="175.5,-704.5 175.5,-723.5 283.5,-723.5 283.5,-704.5 175.5,-704.5"/>
<text text-anchor="start" x="178.5" y="-710.9" font-family="Roboto" font-size="12.00">VARCHAR(255) ()</text>
<polygon fill="#bbdefb" stroke="none" points="10.5,-685.5 10.5,-704.5 175.5,-704.5 175.5,-685.5 10.5,-685.5"/>
<polygon fill="none" stroke="black" points="10.5,-685.5 10.5,-704.5 175.5,-704.5 175.5,-685.5 10.5,-685.5"/>
<text text-anchor="start" x="37.5" y="-691.9" font-family="Roboto" font-size="12.00">source_variable_id</text>
<polygon fill="#bbdefb" stroke="none" points="175.5,-685.5 175.5,-704.5 283.5,-704.5 283.5,-685.5 175.5,-685.5"/>
<polygon fill="none" stroke="black" points="175.5,-685.5 175.5,-704.5 283.5,-704.5 283.5,-685.5 175.5,-685.5"/>
<text text-anchor="start" x="178.5" y="-691.9" font-family="Roboto" font-size="12.00">VARCHAR(255) ()</text>
<polygon fill="#bbdefb" stroke="none" points="10.5,-666.5 10.5,-685.5 175.5,-685.5 175.5,-666.5 10.5,-666.5"/>
<polygon fill="none" stroke="black" points="10.5,-666.5 10.5,-685.5 175.5,-685.5 175.5,-666.5 10.5,-666.5"/>
<text text-anchor="start" x="37.5" y="-672.9" font-family="Roboto" font-size="12.00">source_value_type</text>
<polygon fill="#bbdefb" stroke="none" points="175.5,-666.5 175.5,-685.5 283.5,-685.5 283.5,-666.5 175.5,-666.5"/>
<polygon fill="none" stroke="black" points="175.5,-666.5 175.5,-685.5 283.5,-685.5 283.5,-666.5 175.5,-666.5"/>
<text text-anchor="start" x="178.5" y="-672.9" font-family="Roboto" font-size="12.00">VARCHAR(255) ()</text>
<polygon fill="#bbdefb" stroke="none" points="10.5,-647.5 10.5,-666.5 175.5,-666.5 175.5,-647.5 10.5,-647.5"/>
<polygon fill="none" stroke="black" points="10.5,-647.5 10.5,-666.5 175.5,-666.5 175.5,-647.5 10.5,-647.5"/>
<text text-anchor="start" x="34" y="-653.9" font-family="Roboto" font-size="12.00">string_source_value</text>
<polygon fill="#bbdefb" stroke="none" points="175.5,-647.5 175.5,-666.5 283.5,-666.5 283.5,-647.5 175.5,-647.5"/>
<polygon fill="none" stroke="black" points="175.5,-647.5 175.5,-666.5 283.5,-666.5 283.5,-647.5 175.5,-647.5"/>
<text text-anchor="start" x="178.5" y="-653.9" font-family="Roboto" font-size="12.00">VARCHAR(255) ()</text>
<polygon fill="#bbdefb" stroke="none" points="10.5,-628.5 10.5,-647.5 175.5,-647.5 175.5,-628.5 10.5,-628.5"/>
<polygon fill="none" stroke="black" points="10.5,-628.5 10.5,-647.5 175.5,-647.5 175.5,-628.5 10.5,-628.5"/>
<text text-anchor="start" x="29.5" y="-634.9" font-family="Roboto" font-size="12.00">integer_source_value</text>
<polygon fill="#bbdefb" stroke="none" points="175.5,-628.5 175.5,-647.5 283.5,-647.5 283.5,-628.5 175.5,-628.5"/>
<polygon fill="none" stroke="black" points="175.5,-628.5 175.5,-647.5 283.5,-647.5 283.5,-628.5 175.5,-628.5"/>
<text text-anchor="start" x="196.5" y="-634.9" font-family="Roboto" font-size="12.00">INTEGER ()</text>
<polygon fill="#bbdefb" stroke="none" points="10.5,-609.5 10.5,-628.5 175.5,-628.5 175.5,-609.5 10.5,-609.5"/>
<polygon fill="none" stroke="black" points="10.5,-609.5 10.5,-628.5 175.5,-628.5 175.5,-609.5 10.5,-609.5"/>
<text text-anchor="start" x="37" y="-615.9" font-family="Roboto" font-size="12.00">float_source_value</text>
<polygon fill="#bbdefb" stroke="none" points="175.5,-609.5 175.5,-628.5 283.5,-628.5 283.5,-609.5 175.5,-609.5"/>
<polygon fill="none" stroke="black" points="175.5,-609.5 175.5,-628.5 283.5,-628.5 283.5,-609.5 175.5,-609.5"/>
<text text-anchor="start" x="204.5" y="-615.9" font-family="Roboto" font-size="12.00">FLOAT ()</text>
<polygon fill="#bbdefb" stroke="none" points="10.5,-590.5 10.5,-609.5 175.5,-609.5 175.5,-590.5 10.5,-590.5"/>
<polygon fill="none" stroke="black" points="10.5,-590.5 10.5,-609.5 175.5,-609.5 175.5,-590.5 10.5,-590.5"/>
<text text-anchor="start" x="42.5" y="-596.9" font-family="Roboto" font-size="12.00">source_encoding</text>
<polygon fill="#bbdefb" stroke="none" points="175.5,-590.5 175.5,-609.5 283.5,-609.5 283.5,-590.5 175.5,-590.5"/>
<polygon fill="none" stroke="black" points="175.5,-590.5 175.5,-609.5 283.5,-609.5 283.5,-590.5 175.5,-590.5"/>
<text text-anchor="start" x="178.5" y="-596.9" font-family="Roboto" font-size="12.00">VARCHAR(255) ()</text>
<polygon fill="#bbdefb" stroke="none" points="10.5,-571.5 10.5,-590.5 175.5,-590.5 175.5,-571.5 10.5,-571.5"/>
<polygon fill="none" stroke="black" points="10.5,-571.5 10.5,-590.5 175.5,-590.5 175.5,-571.5 10.5,-571.5"/>
<text text-anchor="start" x="13.5" y="-577.9" font-family="Roboto" font-size="12.00">transformation_instruction</text>
<polygon fill="#bbdefb" stroke="none" points="175.5,-571.5 175.5,-590.5 283.5,-590.5 283.5,-571.5 175.5,-571.5"/>
<polygon fill="none" stroke="black" points="175.5,-571.5 175.5,-590.5 283.5,-590.5 283.5,-571.5 175.5,-571.5"/>
<text text-anchor="start" x="178.5" y="-577.9" font-family="Roboto" font-size="12.00">VARCHAR(255) ()</text>
<polygon fill="#bbdefb" stroke="none" points="10.5,-552.5 10.5,-571.5 175.5,-571.5 175.5,-552.5 10.5,-552.5"/>
<polygon fill="none" stroke="black" points="10.5,-552.5 10.5,-571.5 175.5,-571.5 175.5,-552.5 10.5,-552.5"/>
<text text-anchor="start" x="63" y="-558.9" font-family="Roboto" font-size="12.00">data_type</text>
<polygon fill="#bbdefb" stroke="none" points="175.5,-552.5 175.5,-571.5 283.5,-571.5 283.5,-552.5 175.5,-552.5"/>
<polygon fill="none" stroke="black" points="175.5,-552.5 175.5,-571.5 283.5,-571.5 283.5,-552.5 175.5,-552.5"/>
<text text-anchor="start" x="178.5" y="-558.9" font-family="Roboto" font-size="12.00">VARCHAR(255) ()</text>
<polygon fill="#bbdefb" stroke="none" points="10.5,-533.5 10.5,-552.5 175.5,-552.5 175.5,-533.5 10.5,-533.5"/>
<polygon fill="none" stroke="black" points="10.5,-533.5 10.5,-552.5 175.5,-552.5 175.5,-533.5 10.5,-533.5"/>
<text text-anchor="start" x="56.5" y="-539.9" font-family="Roboto" font-size="12.00">string_value</text>
<polygon fill="#bbdefb" stroke="none" points="175.5,-533.5 175.5,-552.5 283.5,-552.5 283.5,-533.5 175.5,-533.5"/>
<polygon fill="none" stroke="black" points="175.5,-533.5 175.5,-552.5 283.5,-552.5 283.5,-533.5 175.5,-533.5"/>
<text text-anchor="start" x="178.5" y="-539.9" font-family="Roboto" font-size="12.00">VARCHAR(255) ()</text>
<polygon fill="#bbdefb" stroke="none" points="10.5,-514.5 10.5,-533.5 175.5,-533.5 175.5,-514.5 10.5,-514.5"/>
<polygon fill="none" stroke="black" points="10.5,-514.5 10.5,-533.5 175.5,-533.5 175.5,-514.5 10.5,-514.5"/>
<text text-anchor="start" x="52" y="-520.9" font-family="Roboto" font-size="12.00">integer_value</text>
<polygon fill="#bbdefb" stroke="none" points="175.5,-514.5 175.5,-533.5 283.5,-533.5 283.5,-514.5 175.5,-514.5"/>
<polygon fill="none" stroke="black" points="175.5,-514.5 175.5,-533.5 283.5,-533.5 283.5,-514.5 175.5,-514.5"/>
<text text-anchor="start" x="196.5" y="-520.9" font-family="Roboto" font-size="12.00">INTEGER ()</text>
<polygon fill="#bbdefb" stroke="none" points="10.5,-495.5 10.5,-514.5 175.5,-514.5 175.5,-495.5 10.5,-495.5"/>
<polygon fill="none" stroke="black" points="10.5,-495.5 10.5,-514.5 175.5,-514.5 175.5,-495.5 10.5,-495.5"/>
<text text-anchor="start" x="60" y="-501.9" font-family="Roboto" font-size="12.00">float_value</text>
<polygon fill="#bbdefb" stroke="none" points="175.5,-495.5 175.5,-514.5 283.5,-514.5 283.5,-495.5 175.5,-495.5"/>
<polygon fill="none" stroke="black" points="175.5,-495.5 175.5,-514.5 283.5,-514.5 283.5,-495.5 175.5,-495.5"/>
<text text-anchor="start" x="204.5" y="-501.9" font-family="Roboto" font-size="12.00">FLOAT ()</text>
</a>
</g>
</g>
<!-- Patient&#45;&gt;VariableData -->
<g id="edge1" class="edge">
<title>Patient&#45;&gt;VariableData</title>
<g id="a_edge1"><a xlink:title="Relation between Patient and VariableData">
<path fill="none" stroke="#1e88e5" stroke-dasharray="5,2" d="M174.83,-946.25C170.59,-940.41 166.77,-934.32 163.5,-928 160.42,-922.04 157.67,-915.87 155.21,-909.55"/>
<polygon fill="#1e88e5" stroke="#1e88e5" points="158.53,-908.44 151.87,-900.21 151.94,-910.8 158.53,-908.44"/>
</a>
</g>
<text text-anchor="middle" x="197" y="-920" font-family="Roboto" font-size="10.00">variable_data</text>
</g>
<!-- Study -->
<g id="node3" class="node">
<title>Study</title>
<g id="a_node3"><a xlink:href="http://Study_details.html" xlink:title="&lt;TABLE&gt;">
<polygon fill="#3f51b5" stroke="none" points="317.5,-714.5 317.5,-733.5 550.5,-733.5 550.5,-714.5 317.5,-714.5"/>
<polygon fill="none" stroke="black" points="317.5,-714.5 317.5,-733.5 550.5,-733.5 550.5,-714.5 317.5,-714.5"/>
<text text-anchor="start" x="417" y="-720.9" font-family="Roboto" font-size="12.00" fill="white">Study</text>
<polygon fill="#bbdefb" stroke="none" points="317.5,-695.5 317.5,-714.5 400.5,-714.5 400.5,-695.5 317.5,-695.5"/>
<polygon fill="none" stroke="black" points="317.5,-695.5 317.5,-714.5 400.5,-714.5 400.5,-695.5 317.5,-695.5"/>
<text text-anchor="start" x="353.5" y="-701.9" font-family="Roboto" font-size="12.00">id</text>
<polygon fill="#bbdefb" stroke="none" points="400.5,-695.5 400.5,-714.5 550.5,-714.5 550.5,-695.5 400.5,-695.5"/>
<polygon fill="none" stroke="black" points="400.5,-695.5 400.5,-714.5 550.5,-714.5 550.5,-695.5 400.5,-695.5"/>
<text text-anchor="start" x="435" y="-701.9" font-family="Roboto" font-size="12.00">INTEGER (PK)</text>
<polygon fill="#bbdefb" stroke="none" points="317.5,-676.5 317.5,-695.5 400.5,-695.5 400.5,-676.5 317.5,-676.5"/>
<polygon fill="none" stroke="black" points="317.5,-676.5 317.5,-695.5 400.5,-695.5 400.5,-676.5 317.5,-676.5"/>
<text text-anchor="start" x="341.5" y="-682.9" font-family="Roboto" font-size="12.00">name</text>
<polygon fill="#bbdefb" stroke="none" points="400.5,-676.5 400.5,-695.5 550.5,-695.5 550.5,-676.5 400.5,-676.5"/>
<polygon fill="none" stroke="black" points="400.5,-676.5 400.5,-695.5 550.5,-695.5 550.5,-676.5 400.5,-676.5"/>
<text text-anchor="start" x="403.5" y="-682.9" font-family="Roboto" font-size="12.00">VARCHAR(255) (Unique)</text>
<polygon fill="#bbdefb" stroke="none" points="317.5,-657.5 317.5,-676.5 400.5,-676.5 400.5,-657.5 317.5,-657.5"/>
<polygon fill="none" stroke="black" points="317.5,-657.5 317.5,-676.5 400.5,-676.5 400.5,-657.5 317.5,-657.5"/>
<text text-anchor="start" x="320.5" y="-663.9" font-family="Roboto" font-size="12.00">table_names</text>
<polygon fill="#bbdefb" stroke="none" points="400.5,-657.5 400.5,-676.5 550.5,-676.5 550.5,-657.5 400.5,-657.5"/>
<polygon fill="none" stroke="black" points="400.5,-657.5 400.5,-676.5 550.5,-676.5 550.5,-657.5 400.5,-657.5"/>
<text text-anchor="start" x="454" y="-663.9" font-family="Roboto" font-size="12.00">JSON ()</text>
</a>
</g>
</g>
<!-- Patient&#45;&gt;Study -->
<g id="edge2" class="edge">
<title>Patient&#45;&gt;Study</title>
<g id="a_edge2"><a xlink:title="Relation between Patient and Study">
<path fill="none" stroke="#1e88e5" stroke-dasharray="5,2" d="M329.36,-946.14C355.7,-883 390.21,-800.26 412.13,-747.72"/>
<polygon fill="#1e88e5" stroke="#1e88e5" points="415.27,-749.29 415.89,-738.71 408.81,-746.59 415.27,-749.29"/>
</a>
</g>
<text text-anchor="middle" x="351.5" y="-920" font-family="Roboto" font-size="10.00">study</text>
</g>
<!-- VariableData&#45;&gt;Patient -->
<g id="edge3" class="edge">
<title>VariableData&#45;&gt;Patient</title>
<g id="a_edge3"><a xlink:title="Relation between VariableData and Patient">
<path fill="none" stroke="#1e88e5" stroke-dasharray="5,2" d="M233.94,-898.93C239.41,-911.6 244.78,-924.02 249.9,-935.87"/>
<polygon fill="#1e88e5" stroke="#1e88e5" points="246.55,-936.95 253.73,-944.75 252.98,-934.18 246.55,-936.95"/>
</a>
</g>
<text text-anchor="middle" x="262" y="-920" font-family="Roboto" font-size="10.00">patient</text>
</g>
<!-- Codebook -->
<g id="node4" class="node">
<title>Codebook</title>
<g id="a_node4"><a xlink:href="http://Codebook_details.html" xlink:title="&lt;TABLE&gt;">
<polygon fill="#3f51b5" stroke="none" points="8.5,-421.5 8.5,-440.5 285.5,-440.5 285.5,-421.5 8.5,-421.5"/>
<polygon fill="none" stroke="black" points="8.5,-421.5 8.5,-440.5 285.5,-440.5 285.5,-421.5 8.5,-421.5"/>
<text text-anchor="start" x="116.5" y="-427.9" font-family="Roboto" font-size="12.00" fill="white">Codebook</text>
<polygon fill="#bbdefb" stroke="none" points="8.5,-402.5 8.5,-421.5 177.5,-421.5 177.5,-402.5 8.5,-402.5"/>
<polygon fill="none" stroke="black" points="8.5,-402.5 8.5,-421.5 177.5,-421.5 177.5,-402.5 8.5,-402.5"/>
<text text-anchor="start" x="87.5" y="-408.9" font-family="Roboto" font-size="12.00">id</text>
<polygon fill="#bbdefb" stroke="none" points="177.5,-402.5 177.5,-421.5 285.5,-421.5 285.5,-402.5 177.5,-402.5"/>
<polygon fill="none" stroke="black" points="177.5,-402.5 177.5,-421.5 285.5,-421.5 285.5,-402.5 177.5,-402.5"/>
<text text-anchor="start" x="191" y="-408.9" font-family="Roboto" font-size="12.00">INTEGER (PK)</text>
<polygon fill="#bbdefb" stroke="none" points="8.5,-383.5 8.5,-402.5 177.5,-402.5 177.5,-383.5 8.5,-383.5"/>
<polygon fill="none" stroke="black" points="8.5,-383.5 8.5,-402.5 177.5,-402.5 177.5,-383.5 8.5,-383.5"/>
<text text-anchor="start" x="48.5" y="-389.9" font-family="Roboto" font-size="12.00">variable_name</text>
<polygon fill="#bbdefb" stroke="none" points="177.5,-383.5 177.5,-402.5 285.5,-402.5 285.5,-383.5 177.5,-383.5"/>
<polygon fill="none" stroke="black" points="177.5,-383.5 177.5,-402.5 285.5,-402.5 285.5,-383.5 177.5,-383.5"/>
<text text-anchor="start" x="180.5" y="-389.9" font-family="Roboto" font-size="12.00">VARCHAR(255) ()</text>
<polygon fill="#bbdefb" stroke="none" points="8.5,-364.5 8.5,-383.5 177.5,-383.5 177.5,-364.5 8.5,-364.5"/>
<polygon fill="none" stroke="black" points="8.5,-364.5 8.5,-383.5 177.5,-383.5 177.5,-364.5 8.5,-364.5"/>
<text text-anchor="start" x="28.5" y="-370.9" font-family="Roboto" font-size="12.00">variable_abbreviation</text>
<polygon fill="#bbdefb" stroke="none" points="177.5,-364.5 177.5,-383.5 285.5,-383.5 285.5,-364.5 177.5,-364.5"/>
<polygon fill="none" stroke="black" points="177.5,-364.5 177.5,-383.5 285.5,-383.5 285.5,-364.5 177.5,-364.5"/>
<text text-anchor="start" x="184.5" y="-370.9" font-family="Roboto" font-size="12.00">VARCHAR(50) ()</text>
<polygon fill="#bbdefb" stroke="none" points="8.5,-345.5 8.5,-364.5 177.5,-364.5 177.5,-345.5 8.5,-345.5"/>
<polygon fill="none" stroke="black" points="8.5,-345.5 8.5,-364.5 177.5,-364.5 177.5,-345.5 8.5,-345.5"/>
<text text-anchor="start" x="59.5" y="-351.9" font-family="Roboto" font-size="12.00">description</text>
<polygon fill="#bbdefb" stroke="none" points="177.5,-345.5 177.5,-364.5 285.5,-364.5 285.5,-345.5 177.5,-345.5"/>
<polygon fill="none" stroke="black" points="177.5,-345.5 177.5,-364.5 285.5,-364.5 285.5,-345.5 177.5,-345.5"/>
<text text-anchor="start" x="196.5" y="-351.9" font-family="Roboto" font-size="12.00">VARCHAR ()</text>
<polygon fill="#bbdefb" stroke="none" points="8.5,-326.5 8.5,-345.5 177.5,-345.5 177.5,-326.5 8.5,-326.5"/>
<polygon fill="none" stroke="black" points="8.5,-326.5 8.5,-345.5 177.5,-345.5 177.5,-326.5 8.5,-326.5"/>
<text text-anchor="start" x="52.5" y="-332.9" font-family="Roboto" font-size="12.00">variable_type</text>
<polygon fill="#bbdefb" stroke="none" points="177.5,-326.5 177.5,-345.5 285.5,-345.5 285.5,-326.5 177.5,-326.5"/>
<polygon fill="none" stroke="black" points="177.5,-326.5 177.5,-345.5 285.5,-345.5 285.5,-326.5 177.5,-326.5"/>
<text text-anchor="start" x="184.5" y="-332.9" font-family="Roboto" font-size="12.00">VARCHAR(50) ()</text>
<polygon fill="#bbdefb" stroke="none" points="8.5,-307.5 8.5,-326.5 177.5,-326.5 177.5,-307.5 8.5,-307.5"/>
<polygon fill="none" stroke="black" points="8.5,-307.5 8.5,-326.5 177.5,-326.5 177.5,-307.5 8.5,-307.5"/>
<text text-anchor="start" x="39" y="-313.9" font-family="Roboto" font-size="12.00">variable_category</text>
<polygon fill="#bbdefb" stroke="none" points="177.5,-307.5 177.5,-326.5 285.5,-326.5 285.5,-307.5 177.5,-307.5"/>
<polygon fill="none" stroke="black" points="177.5,-307.5 177.5,-326.5 285.5,-326.5 285.5,-307.5 177.5,-307.5"/>
<text text-anchor="start" x="184.5" y="-313.9" font-family="Roboto" font-size="12.00">VARCHAR(50) ()</text>
<polygon fill="#bbdefb" stroke="none" points="8.5,-288.5 8.5,-307.5 177.5,-307.5 177.5,-288.5 8.5,-288.5"/>
<polygon fill="none" stroke="black" points="8.5,-288.5 8.5,-307.5 177.5,-307.5 177.5,-288.5 8.5,-288.5"/>
<text text-anchor="start" x="49" y="-294.9" font-family="Roboto" font-size="12.00">ontology_code</text>
<polygon fill="#bbdefb" stroke="none" points="177.5,-288.5 177.5,-307.5 285.5,-307.5 285.5,-288.5 177.5,-288.5"/>
<polygon fill="none" stroke="black" points="177.5,-288.5 177.5,-307.5 285.5,-307.5 285.5,-288.5 177.5,-288.5"/>
<text text-anchor="start" x="184.5" y="-294.9" font-family="Roboto" font-size="12.00">VARCHAR(50) ()</text>
<polygon fill="#bbdefb" stroke="none" points="8.5,-269.5 8.5,-288.5 177.5,-288.5 177.5,-269.5 8.5,-269.5"/>
<polygon fill="none" stroke="black" points="8.5,-269.5 8.5,-288.5 177.5,-288.5 177.5,-269.5 8.5,-269.5"/>
<text text-anchor="start" x="85" y="-275.9" font-family="Roboto" font-size="12.00">url</text>
<polygon fill="#bbdefb" stroke="none" points="177.5,-269.5 177.5,-288.5 285.5,-288.5 285.5,-269.5 177.5,-269.5"/>
<polygon fill="none" stroke="black" points="177.5,-269.5 177.5,-288.5 285.5,-288.5 285.5,-269.5 177.5,-269.5"/>
<text text-anchor="start" x="180.5" y="-275.9" font-family="Roboto" font-size="12.00">VARCHAR(255) ()</text>
<polygon fill="#bbdefb" stroke="none" points="8.5,-250.5 8.5,-269.5 177.5,-269.5 177.5,-250.5 8.5,-250.5"/>
<polygon fill="none" stroke="black" points="8.5,-250.5 8.5,-269.5 177.5,-269.5 177.5,-250.5 8.5,-250.5"/>
<text text-anchor="start" x="11.5" y="-256.9" font-family="Roboto" font-size="12.00">associated_ontology_codes</text>
<polygon fill="#bbdefb" stroke="none" points="177.5,-250.5 177.5,-269.5 285.5,-269.5 285.5,-250.5 177.5,-250.5"/>
<polygon fill="none" stroke="black" points="177.5,-250.5 177.5,-269.5 285.5,-269.5 285.5,-250.5 177.5,-250.5"/>
<text text-anchor="start" x="210" y="-256.9" font-family="Roboto" font-size="12.00">JSON ()</text>
<polygon fill="#bbdefb" stroke="none" points="8.5,-231.5 8.5,-250.5 177.5,-250.5 177.5,-231.5 8.5,-231.5"/>
<polygon fill="none" stroke="black" points="8.5,-231.5 8.5,-250.5 177.5,-250.5 177.5,-231.5 8.5,-231.5"/>
<text text-anchor="start" x="82.5" y="-237.9" font-family="Roboto" font-size="12.00">rp1</text>
<polygon fill="#bbdefb" stroke="none" points="177.5,-231.5 177.5,-250.5 285.5,-250.5 285.5,-231.5 177.5,-231.5"/>
<polygon fill="none" stroke="black" points="177.5,-231.5 177.5,-250.5 285.5,-250.5 285.5,-231.5 177.5,-231.5"/>
<text text-anchor="start" x="198.5" y="-237.9" font-family="Roboto" font-size="12.00">INTEGER ()</text>
<polygon fill="#bbdefb" stroke="none" points="8.5,-212.5 8.5,-231.5 177.5,-231.5 177.5,-212.5 8.5,-212.5"/>
<polygon fill="none" stroke="black" points="8.5,-212.5 8.5,-231.5 177.5,-231.5 177.5,-212.5 8.5,-212.5"/>
<text text-anchor="start" x="82.5" y="-218.9" font-family="Roboto" font-size="12.00">rp2</text>
<polygon fill="#bbdefb" stroke="none" points="177.5,-212.5 177.5,-231.5 285.5,-231.5 285.5,-212.5 177.5,-212.5"/>
<polygon fill="none" stroke="black" points="177.5,-212.5 177.5,-231.5 285.5,-231.5 285.5,-212.5 177.5,-212.5"/>
<text text-anchor="start" x="198.5" y="-218.9" font-family="Roboto" font-size="12.00">INTEGER ()</text>
<polygon fill="#bbdefb" stroke="none" points="8.5,-193.5 8.5,-212.5 177.5,-212.5 177.5,-193.5 8.5,-193.5"/>
<polygon fill="none" stroke="black" points="8.5,-193.5 8.5,-212.5 177.5,-212.5 177.5,-193.5 8.5,-193.5"/>
<text text-anchor="start" x="81.5" y="-199.9" font-family="Roboto" font-size="12.00">unit</text>
<polygon fill="#bbdefb" stroke="none" points="177.5,-193.5 177.5,-212.5 285.5,-212.5 285.5,-193.5 177.5,-193.5"/>
<polygon fill="none" stroke="black" points="177.5,-193.5 177.5,-212.5 285.5,-212.5 285.5,-193.5 177.5,-193.5"/>
<text text-anchor="start" x="184.5" y="-199.9" font-family="Roboto" font-size="12.00">VARCHAR(50) ()</text>
<polygon fill="#bbdefb" stroke="none" points="8.5,-174.5 8.5,-193.5 177.5,-193.5 177.5,-174.5 8.5,-174.5"/>
<polygon fill="none" stroke="black" points="8.5,-174.5 8.5,-193.5 177.5,-193.5 177.5,-174.5 8.5,-174.5"/>
<text text-anchor="start" x="61" y="-180.9" font-family="Roboto" font-size="12.00">categories</text>
<polygon fill="#bbdefb" stroke="none" points="177.5,-174.5 177.5,-193.5 285.5,-193.5 285.5,-174.5 177.5,-174.5"/>
<polygon fill="none" stroke="black" points="177.5,-174.5 177.5,-193.5 285.5,-193.5 285.5,-174.5 177.5,-174.5"/>
<text text-anchor="start" x="210" y="-180.9" font-family="Roboto" font-size="12.00">JSON ()</text>
<polygon fill="#bbdefb" stroke="none" points="8.5,-155.5 8.5,-174.5 177.5,-174.5 177.5,-155.5 8.5,-155.5"/>
<polygon fill="none" stroke="black" points="8.5,-155.5 8.5,-174.5 177.5,-174.5 177.5,-155.5 8.5,-155.5"/>
<text text-anchor="start" x="52.5" y="-161.9" font-family="Roboto" font-size="12.00">unit_example</text>
<polygon fill="#bbdefb" stroke="none" points="177.5,-155.5 177.5,-174.5 285.5,-174.5 285.5,-155.5 177.5,-155.5"/>
<polygon fill="none" stroke="black" points="177.5,-155.5 177.5,-174.5 285.5,-174.5 285.5,-155.5 177.5,-155.5"/>
<text text-anchor="start" x="184.5" y="-161.9" font-family="Roboto" font-size="12.00">VARCHAR(50) ()</text>
<polygon fill="#bbdefb" stroke="none" points="8.5,-136.5 8.5,-155.5 177.5,-155.5 177.5,-136.5 8.5,-136.5"/>
<polygon fill="none" stroke="black" points="8.5,-136.5 8.5,-155.5 177.5,-155.5 177.5,-136.5 8.5,-136.5"/>
<text text-anchor="start" x="76" y="-142.9" font-family="Roboto" font-size="12.00">dtype</text>
<polygon fill="#bbdefb" stroke="none" points="177.5,-136.5 177.5,-155.5 285.5,-155.5 285.5,-136.5 177.5,-136.5"/>
<polygon fill="none" stroke="black" points="177.5,-136.5 177.5,-155.5 285.5,-155.5 285.5,-136.5 177.5,-136.5"/>
<text text-anchor="start" x="184.5" y="-142.9" font-family="Roboto" font-size="12.00">VARCHAR(50) ()</text>
<polygon fill="#bbdefb" stroke="none" points="8.5,-117.5 8.5,-136.5 177.5,-136.5 177.5,-117.5 8.5,-117.5"/>
<polygon fill="none" stroke="black" points="8.5,-117.5 8.5,-136.5 177.5,-136.5 177.5,-117.5 8.5,-117.5"/>
<text text-anchor="start" x="50" y="-123.9" font-family="Roboto" font-size="12.00">valid_low_limit</text>
<polygon fill="#bbdefb" stroke="none" points="177.5,-117.5 177.5,-136.5 285.5,-136.5 285.5,-117.5 177.5,-117.5"/>
<polygon fill="none" stroke="black" points="177.5,-117.5 177.5,-136.5 285.5,-136.5 285.5,-117.5 177.5,-117.5"/>
<text text-anchor="start" x="184.5" y="-123.9" font-family="Roboto" font-size="12.00">VARCHAR(50) ()</text>
<polygon fill="#bbdefb" stroke="none" points="8.5,-98.5 8.5,-117.5 177.5,-117.5 177.5,-98.5 8.5,-98.5"/>
<polygon fill="none" stroke="black" points="8.5,-98.5 8.5,-117.5 177.5,-117.5 177.5,-98.5 8.5,-98.5"/>
<text text-anchor="start" x="47.5" y="-104.9" font-family="Roboto" font-size="12.00">valid_high_limit</text>
<polygon fill="#bbdefb" stroke="none" points="177.5,-98.5 177.5,-117.5 285.5,-117.5 285.5,-98.5 177.5,-98.5"/>
<polygon fill="none" stroke="black" points="177.5,-98.5 177.5,-117.5 285.5,-117.5 285.5,-98.5 177.5,-98.5"/>
<text text-anchor="start" x="184.5" y="-104.9" font-family="Roboto" font-size="12.00">VARCHAR(50) ()</text>
<polygon fill="#bbdefb" stroke="none" points="8.5,-79.5 8.5,-98.5 177.5,-98.5 177.5,-79.5 8.5,-79.5"/>
<polygon fill="none" stroke="black" points="8.5,-79.5 8.5,-98.5 177.5,-98.5 177.5,-79.5 8.5,-79.5"/>
<text text-anchor="start" x="36.5" y="-85.9" font-family="Roboto" font-size="12.00">normal_lower_limit</text>
<polygon fill="#bbdefb" stroke="none" points="177.5,-79.5 177.5,-98.5 285.5,-98.5 285.5,-79.5 177.5,-79.5"/>
<polygon fill="none" stroke="black" points="177.5,-79.5 177.5,-98.5 285.5,-98.5 285.5,-79.5 177.5,-79.5"/>
<text text-anchor="start" x="184.5" y="-85.9" font-family="Roboto" font-size="12.00">VARCHAR(50) ()</text>
<polygon fill="#bbdefb" stroke="none" points="8.5,-60.5 8.5,-79.5 177.5,-79.5 177.5,-60.5 8.5,-60.5"/>
<polygon fill="none" stroke="black" points="8.5,-60.5 8.5,-79.5 177.5,-79.5 177.5,-60.5 8.5,-60.5"/>
<text text-anchor="start" x="35.5" y="-66.9" font-family="Roboto" font-size="12.00">normal_upper_limit</text>
<polygon fill="#bbdefb" stroke="none" points="177.5,-60.5 177.5,-79.5 285.5,-79.5 285.5,-60.5 177.5,-60.5"/>
<polygon fill="none" stroke="black" points="177.5,-60.5 177.5,-79.5 285.5,-79.5 285.5,-60.5 177.5,-60.5"/>
<text text-anchor="start" x="184.5" y="-66.9" font-family="Roboto" font-size="12.00">VARCHAR(50) ()</text>
<polygon fill="#bbdefb" stroke="none" points="8.5,-41.5 8.5,-60.5 177.5,-60.5 177.5,-41.5 8.5,-41.5"/>
<polygon fill="none" stroke="black" points="8.5,-41.5 8.5,-60.5 177.5,-60.5 177.5,-41.5 8.5,-41.5"/>
<text text-anchor="start" x="66.5" y="-47.9" font-family="Roboto" font-size="12.00">standard</text>
<polygon fill="#bbdefb" stroke="none" points="177.5,-41.5 177.5,-60.5 285.5,-60.5 285.5,-41.5 177.5,-41.5"/>
<polygon fill="none" stroke="black" points="177.5,-41.5 177.5,-60.5 285.5,-60.5 285.5,-41.5 177.5,-41.5"/>
<text text-anchor="start" x="184.5" y="-47.9" font-family="Roboto" font-size="12.00">VARCHAR(50) ()</text>
<polygon fill="#bbdefb" stroke="none" points="8.5,-22.5 8.5,-41.5 177.5,-41.5 177.5,-22.5 8.5,-22.5"/>
<polygon fill="none" stroke="black" points="8.5,-22.5 8.5,-41.5 177.5,-41.5 177.5,-22.5 8.5,-22.5"/>
<text text-anchor="start" x="32" y="-28.9" font-family="Roboto" font-size="12.00">method_determined</text>
<polygon fill="#bbdefb" stroke="none" points="177.5,-22.5 177.5,-41.5 285.5,-41.5 285.5,-22.5 177.5,-22.5"/>
<polygon fill="none" stroke="black" points="177.5,-22.5 177.5,-41.5 285.5,-41.5 285.5,-22.5 177.5,-22.5"/>
<text text-anchor="start" x="184.5" y="-28.9" font-family="Roboto" font-size="12.00">VARCHAR(50) ()</text>
<polygon fill="#bbdefb" stroke="none" points="8.5,-3.5 8.5,-22.5 177.5,-22.5 177.5,-3.5 8.5,-3.5"/>
<polygon fill="none" stroke="black" points="8.5,-3.5 8.5,-22.5 177.5,-22.5 177.5,-3.5 8.5,-3.5"/>
<text text-anchor="start" x="31" y="-9.9" font-family="Roboto" font-size="12.00">associated_variables</text>
<polygon fill="#bbdefb" stroke="none" points="177.5,-3.5 177.5,-22.5 285.5,-22.5 285.5,-3.5 177.5,-3.5"/>
<polygon fill="none" stroke="black" points="177.5,-3.5 177.5,-22.5 285.5,-22.5 285.5,-3.5 177.5,-3.5"/>
<text text-anchor="start" x="210" y="-9.9" font-family="Roboto" font-size="12.00">JSON ()</text>
</a>
</g>
</g>
<!-- VariableData&#45;&gt;Codebook -->
<g id="edge4" class="edge">
<title>VariableData&#45;&gt;Codebook</title>
<g id="a_edge4"><a xlink:title="Relation between VariableData and Codebook">
<path fill="none" stroke="#1e88e5" stroke-dasharray="5,2" d="M146.5,-492.02C146.5,-480.21 146.5,-468.29 146.5,-456.38"/>
<polygon fill="#1e88e5" stroke="#1e88e5" points="150,-456.47 146.5,-446.47 143,-456.47 150,-456.47"/>
</a>
</g>
<text text-anchor="middle" x="183" y="-466" font-family="Roboto" font-size="10.00">variable_name</text>
</g>
<!-- Study&#45;&gt;Patient -->
<g id="edge5" class="edge">
<title>Study&#45;&gt;Patient</title>
<g id="a_edge5"><a xlink:title="Relation between Study and Patient">
<path fill="none" stroke="#1e88e5" stroke-dasharray="5,2" d="M426.77,-737.37C417.92,-784.89 399.84,-864.86 369.5,-928 368.18,-930.75 366.79,-933.5 365.33,-936.25"/>
<polygon fill="#1e88e5" stroke="#1e88e5" points="362.36,-934.4 360.56,-944.84 368.48,-937.8 362.36,-934.4"/>
</a>
</g>
<text text-anchor="middle" x="391.5" y="-920" font-family="Roboto" font-size="10.00">patients</text>
</g>
</g>
</svg>
